<svg width="250" height="68" viewBox="0 0 335 91" fill="none" xmlns="http://www.w3.org/2000/svg">
<g filter="url(#filter0_d_12_620)">
<path d="M62.3131 16.84V27.8H47.4331V73H33.7531V27.8H18.8731V16.84H62.3131ZM76.0588 23.72C73.6588 23.72 71.6854 23.0267 70.1388 21.64C68.6454 20.2 67.8988 18.44 67.8988 16.36C67.8988 14.2267 68.6454 12.4667 70.1388 11.08C71.6854 9.64 73.6588 8.92 76.0588 8.92C78.4054 8.92 80.3254 9.64 81.8188 11.08C83.3654 12.4667 84.1388 14.2267 84.1388 16.36C84.1388 18.44 83.3654 20.2 81.8188 21.64C80.3254 23.0267 78.4054 23.72 76.0588 23.72ZM82.8588 28.36V73H69.1788V28.36H82.8588ZM120.053 73L106.453 54.28V73H92.7725V13.8H106.453V46.52L119.973 28.36H136.853L118.293 50.76L137.013 73H120.053ZM167.106 61.4V73H160.146C155.186 73 151.319 71.8 148.546 69.4C145.772 66.9467 144.386 62.9733 144.386 57.48V39.72H138.946V28.36H144.386V17.48H158.066V28.36H167.026V39.72H158.066V57.64C158.066 58.9733 158.386 59.9333 159.026 60.52C159.666 61.1067 160.732 61.4 162.226 61.4H167.106ZM195.046 73.64C190.672 73.64 186.726 72.7067 183.206 70.84C179.739 68.9733 176.992 66.3067 174.966 62.84C172.992 59.3733 172.006 55.32 172.006 50.68C172.006 46.0933 173.019 42.0667 175.046 38.6C177.072 35.08 179.846 32.3867 183.366 30.52C186.886 28.6533 190.832 27.72 195.206 27.72C199.579 27.72 203.526 28.6533 207.046 30.52C210.566 32.3867 213.339 35.08 215.366 38.6C217.392 42.0667 218.406 46.0933 218.406 50.68C218.406 55.2667 217.366 59.32 215.286 62.84C213.259 66.3067 210.459 68.9733 206.886 70.84C203.366 72.7067 199.419 73.64 195.046 73.64ZM195.046 61.8C197.659 61.8 199.872 60.84 201.686 58.92C203.552 57 204.486 54.2533 204.486 50.68C204.486 47.1067 203.579 44.36 201.766 42.44C200.006 40.52 197.819 39.56 195.206 39.56C192.539 39.56 190.326 40.52 188.566 42.44C186.806 44.3067 185.926 47.0533 185.926 50.68C185.926 54.2533 186.779 57 188.486 58.92C190.246 60.84 192.432 61.8 195.046 61.8ZM252.943 73L239.343 54.28V73H225.663V13.8H239.343V46.52L252.863 28.36H269.743L251.183 50.76L269.903 73H252.943Z" fill="white"/>
</g>
<path d="M159.083 76.7728C101.173 68.5688 28.8987 75.6334 0 80.1912V86.0512C26.3735 81.8009 97.9749 75.8505 173.392 86.0512C248.809 96.252 312.554 88.3482 335 83.1212C305.961 89.4697 231.47 87.0278 159.083 76.7728Z" fill="#9333EA"/>
<defs>
<filter id="filter0_d_12_620" x="14.873" y="8.92" width="259.03" height="72.72" filterUnits="userSpaceOnUse" color-interpolation-filters="sRGB">
<feFlood flood-opacity="0" result="BackgroundImageFix"/>
<feColorMatrix in="SourceAlpha" type="matrix" values="0 0 0 0 0 0 0 0 0 0 0 0 0 0 0 0 0 0 127 0" result="hardAlpha"/>
<feOffset dy="4"/>
<feGaussianBlur stdDeviation="2"/>
<feComposite in2="hardAlpha" operator="out"/>
<feColorMatrix type="matrix" values="0 0 0 0 0 0 0 0 0 0 0 0 0 0 0 0 0 0 0.25 0"/>
<feBlend mode="normal" in2="BackgroundImageFix" result="effect1_dropShadow_12_620"/>
<feBlend mode="normal" in="SourceGraphic" in2="effect1_dropShadow_12_620" result="shape"/>
</filter>
</defs>
</svg>
